name 900006_30rea_lsw
datacolumns 54
datarows 8
range 1.1539999999999984 1.2169999999999976
cursor 1.0 1.0 0.0
keys m_key
wrap
enforce_loops no
enforce_constraints no
calc_derivatives 0.009000
event_color 1.000000 0.000000 1.000000
endheader

time	calcn_r_tx	calcn_r_ty	calcn_r_tz	calcn_r_r1	calcn_r_r2	calcn_r_r3	calcn_l_tx	calcn_l_ty	calcn_l_tz	calcn_l_r1	calcn_l_r2	calcn_l_r3	pelvis_tz	pelvis_tx	pelvis_ty	pelvis_tilt	pelvis_list	pelvis_rotation	hip_flexion_r	hip_adduction_r	hip_rotation_r	knee_angle_r	ankle_angle_r	subtalar_angle_r	mtp_angle_r	hip_flexion_l	hip_adduction_l	hip_rotation_l	knee_angle_l	ankle_angle_l	subtalar_angle_l	mtp_angle_l	lumbar_extension	lumbar_bending	lumbar_rotation	ground_force_px	ground_force_py	ground_force_pz	ground_force_vx	ground_force_vy	ground_force_vz	ground_force_px	ground_force_py	ground_force_pz	ground_force_vx	ground_force_vy	ground_force_vz	ground_torque_x	ground_torque_y	ground_torque_z	ground_torque_x	ground_torque_y	ground_torque_z	
      1.1539999999999984	      1.2997549382166400	      0.0375036069143661	     -0.1485543682074173	      1.1588176004858890	      0.4461508687532789	     -1.3907356483423814	      1.0659358589849164	      0.1733430158682928	     -0.2741855460208682	     -1.9140989933201578	      3.7794469996624231	    -43.0643728924143830	     -0.2247961277031656	      1.3918508858946572	      0.8325974360515662	      1.9876343751191086	     -2.2982925406321910	      1.7487298839757717	      6.5636834868248162	      3.8198789745428288	     -1.1630836898765406	    -13.5207112455995380	      3.7862039390866680	      0.0000000000000000	      0.0000000000000000	      7.3073738917241684	     -1.0734363435242629	     -2.7053309745883443	    -55.9927120783217230	      3.7066623775467304	      0.0000000000000000	      0.0000000000000000	    -13.5989442987580920	      6.6178868236857618	     -2.1786175189320351	      1.4156688587188277	      0.0000000000000000	     -0.1496830785989674	    -26.5526159718288530	    368.7865201393954600	    -23.1793369008331180	      0.9042589443295215	      0.0000000000000000	     -0.2422716858178208	     -0.0000088831607260	     -0.0000211836583687	      0.0000039360168363	      0.0000000000000000	      0.3508783594355365	      0.0000000000000000	      0.0000000000000000	      0.0000000235364326	      0.0000000000000000	
      1.1629999999999983	      1.3000350391294477	      0.0374942952965727	     -0.1490644728393745	      1.1514647786396255	      0.4200887649700974	     -1.4870804121619388	      1.0955258756286468	      0.1649703844816027	     -0.2746840666946273	     -1.9896668390392038	      3.6164560117784381	    -39.7109696711138440	     -0.2245659618758452	      1.4029829281454189	      0.8332754352819801	      1.7557428758455442	     -2.0110147563680210	      1.7305609074426858	      5.5800957803850295	      3.6030487940007578	     -1.0069682391434303	    -12.8405815300969020	      4.2214222348050150	      0.0000000000000000	      0.0000000000000000	      9.2662211516972341	     -0.8406561368684399	     -2.8698755237401246	    -55.8083536324576240	      5.1629272139976070	      0.0000000000000000	      0.0000000000000000	    -13.5843673048817650	      6.1775364635302372	     -2.0216658712013200	      1.4228422913612147	      0.0000000000000000	     -0.1503656809793964	    -25.1239075595088010	    364.1845267577556900	    -21.6220897526307110	      0.9071246529230505	      0.0000000000000000	     -0.2419213773093365	     -0.0000001596396504	     -0.0000053384044952	      0.0000014460016710	      0.0000000000000000	      0.4753491299548698	      0.0000000000000000	      0.0000000000000000	      0.0000000397173646	      0.0000000000000000	
      1.1719999999999982	      1.3003901005932654	      0.0374636632320791	     -0.1496387851943964	      1.1462076976998279	      0.3369683184212719	     -1.5780386209906578	      1.1262486128420779	      0.1558912763492726	     -0.2750218178717530	     -2.0233797813234338	      3.5823625329416346	    -36.3250651834587050	     -0.2242808767248218	      1.4140574065327314	      0.8337955192630628	      1.5273440731216257	     -1.6966039605418735	      1.6838075110826769	      4.6079286243171476	      3.3524308627905404	     -0.8871926469324478	    -12.1633487132984840	      4.6483962086488102	      0.0000000000000000	      0.0000000000000000	     11.1440230794307420	     -0.6174304650884898	     -3.1692255512337195	    -55.2829481977156190	      6.3832315615174178	      0.0000000000000000	      0.0000000000000000	    -13.5784867836003120	      5.6810813911871039	     -1.8433473749909652	      1.4299249939697409	      0.0000000000000000	     -0.1510322777346974	    -23.4867646618833920	    358.9118249217339700	    -20.1104262086518300	      0.9099729335101171	      0.0000000000000000	     -0.2414809607166244	      0.0000012657216747	      0.0000035002160034	     -0.0000006944896489	      0.0000000000000000	      0.6055347669682432	      0.0000000000000000	      0.0000000000000000	     -0.0000000071726912	      0.0000000000000000	
      1.1809999999999981	      1.3007751848839226	      0.0374279790561083	     -0.1502647424576711	      1.1389286879266927	      0.1774614947690001	     -1.6787298174660941	      1.1580860329195275	      0.1463195483733843	     -0.2752559618760878	     -2.0311737738524123	      3.6616231123541558	    -32.9330710494124690	     -0.2239534548715078	      1.4250899513883142	      0.8341528032314776	      1.3077048279313863	     -1.3685615648573537	      1.6053716503390059	      3.6395814399863715	      3.0774153135261542	     -0.8231036357214948	    -11.4919009512840610	      5.0580673924148574	      0.0000000000000000	      0.0000000000000000	     12.9325455734435410	     -0.4130712216769244	     -3.5866997770617477	    -54.4410848244637360	      7.3687737774704933	      0.0000000000000000	      0.0000000000000000	    -13.5842024554119810	      5.1481226494724082	     -1.6279692611958854	      1.4368272012098484	      0.0000000000000000	     -0.1516839257601421	    -21.8097828471330290	    353.9266276444753300	    -18.8235193622601500	      0.9129453725998910	      0.0000000000000000	     -0.2409310388135831	     -0.0000001001534211	      0.0000004113121859	     -0.0000001359739893	      0.0000000000000000	      0.7318692962839941	      0.0000000000000000	      0.0000000000000000	     -0.0000000048876519	      0.0000000000000000	
      1.1899999999999979	      1.3011186573582136	      0.0374105476762859	     -0.1509237675546300	      1.1252104906020850	     -0.0650187995266639	     -1.8063769644728529	      1.1910110440722832	      0.1364526026151836	     -0.2754718846201378	     -2.0275400210111578	      3.8268147789313915	    -29.5499128937213090	     -0.2236037630912621	      1.4361024282487107	      0.8343394254959459	      1.1008908661389953	     -1.0427001221113212	      1.4979197272766562	      2.6649809232439541	      2.7915235898632855	     -0.8266319548619894	    -10.8277787653232180	      5.4418978391422597	      0.0000000000000000	      0.0000000000000000	     14.6269548926224320	     -0.2348165081623220	     -4.0891209608718784	    -53.3085772813662260	      8.1319779380965596	      0.0000000000000000	      0.0000000000000000	    -13.6003780929459670	      4.6017157680131291	     -1.3643490274138461	      1.4434007863187690	      0.0000000000000000	     -0.1522794276209533	    -20.2467887878727280	    349.7749520777978200	    -17.9570709624686950	      0.9162871913997917	      0.0000000000000000	     -0.2402799917030326	     -0.0000001679367997	     -0.0000005310047089	      0.0000001106184280	      0.0000000000000000	      0.8374601998287297	      0.0000000000000000	      0.0000000000000000	      0.0000000014794935	      0.0000000000000000	
      1.1989999999999978	      1.3013508169362495	      0.0374405239112144	     -0.1515921228238104	      1.1011089114781716	     -0.3843887210732006	     -1.9771703201958997	      1.2249763822787691	      0.1264769966397982	     -0.2757686886684466	     -2.0219961528662860	      4.0482002290149488	    -26.1864746540775820	     -0.2232567192914478	      1.4471153226615123	      0.8343456117294534	      0.9095858930478548	     -0.7352135210635018	      1.3714327400245918	      1.6759861503841516	      2.5106118446724244	     -0.9034619217779900	    -10.1748012091249560	      5.7942086626045253	      0.0000000000000000	      0.0000000000000000	     16.2256613044195960	     -0.0886947697037955	     -4.6330532630658139	    -51.9116746053724330	      8.6881576357737842	      0.0000000000000000	      0.0000000000000000	    -13.6239279675235740	      4.0656755455594542	     -1.0531544577583776	      1.4494832951761809	      0.0000000000000000	     -0.1527831818524641	    -18.7307600100083460	    346.6741680069205200	    -17.6824396806938080	      0.9202508505667353	      0.0000000000000000	     -0.2395782960814933	      0.0000000303120924	     -0.0000000061784665	      0.0000000083348917	      0.0000000000000000	      0.9100584069814061	      0.0000000000000000	      0.0000000000000000	      0.0000000005415827	      0.0000000000000000	
      1.2079999999999977	      1.3014282632531251	      0.0375478677535988	     -0.1522475436622140	      1.0632571830499749	     -0.7676239753155127	     -2.2014852981113604	      1.2598927169288239	      0.1165784254288824	     -0.2762484838412694	     -2.0190375362418491	      4.2973835194431453	    -22.8565869486462070	     -0.2229386490909537	      1.4581459617946231	      0.8341610535722408	      0.7351298651676150	     -0.4614454637350096	      1.2396791206139435	      0.6695580017743844	      2.2513653009732599	     -1.0544608078929145	     -9.5414626117838246	      6.1158679407570133	      0.0000000000000000	      0.0000000000000000	     17.7281873113474160	      0.0207521950496313	     -5.1712544635178990	    -50.2771660965339540	      9.0503694940549231	      0.0000000000000000	      0.0000000000000000	    -13.6510485681365100	      3.5630807093376191	     -0.7051892050610846	      1.4549134980299525	      0.0000000000000000	     -0.1531891526674291	    -17.0058017519229420	    344.8861069375006400	    -18.0379357964150910	      0.9250007281890216	      0.0000000000000000	     -0.2389083925463127	      0.0000000205653405	      0.0000000749545901	     -0.0000000163003292	      0.0000000000000000	      0.9484741769958495	      0.0000000000000000	      0.0000000000000000	     -0.0000000002598685	      0.0000000000000000	
      1.2169999999999976	      1.3013386077307756	      0.0377560555316587	     -0.1528810107886496	      1.0089807566507203	     -1.2014884838407180	     -2.4810458457253328	      1.2956186074140292	      0.1069415347101579	     -0.2770020543895865	     -2.0194442916657915	      4.5489255857972797	    -19.5791285313769270	     -0.2226709685112642	      1.4692122585202569	      0.8337750912694084	      0.5767587491034327	     -0.2335576374223924	      1.1148242455198443	     -0.3509772955897310	      2.0287685564329165	     -1.2764325822328149	     -8.9409411578039322	      6.4164763791231936	      0.0000000000000000	      0.0000000000000000	     19.1339418913418590	      0.0916419607745001	     -5.6604468617539050	    -48.4317207694256880	      9.2284771266459522	      0.0000000000000000	      0.0000000000000000	    -13.6758229540259070	      3.1126186793081212	     -0.3351052942857840	      1.4595705775685395	      0.0000000000000000	     -0.1535275019791227	    -14.9172554832085660	    344.7351702436118900	    -18.8820146802495080	      0.9305244351526845	      0.0000000000000000	     -0.2383383449882983	     -0.0000000062562420	     -0.0000000064688286	      0.0000000004279154	      0.0000000000000000	      0.9631945943116076	      0.0000000000000000	      0.0000000000000000	     -0.0000000000504011	      0.0000000000000000	
